<svg width="20" height="18" viewBox="0 0 20 18" fill="none" xmlns="http://www.w3.org/2000/svg">
<path fill-rule="evenodd" clip-rule="evenodd" d="M15.3199 16.9824C15.5883 17.1724 15.9341 17.2199 16.2424 17.1032C16.5508 16.9857 16.7774 16.7224 16.8458 16.4032C17.5699 12.9999 19.3266 4.38571 19.9858 1.28988C20.0358 1.05655 19.9524 0.814046 19.7691 0.658213C19.5858 0.502379 19.3316 0.457379 19.1049 0.541546C15.6108 1.83488 4.84993 5.87238 0.451601 7.49988C0.172434 7.60321 -0.0092328 7.87155 -6.61374e-05 8.16571C0.00993386 8.46071 0.208267 8.71655 0.494101 8.80238C2.4666 9.39238 5.05577 10.2132 5.05577 10.2132C5.05577 10.2132 6.26577 13.8674 6.8966 15.7257C6.97577 15.959 7.15827 16.1424 7.3991 16.2057C7.6391 16.2682 7.89577 16.2024 8.07493 16.0332C9.08827 15.0765 10.6549 13.5974 10.6549 13.5974C10.6549 13.5974 13.6316 15.7799 15.3199 16.9824ZM6.14493 9.75155L7.5441 14.3665L7.85493 11.444C7.85493 11.444 13.2608 6.56821 16.3424 3.78905C16.4324 3.70738 16.4449 3.57071 16.3699 3.47488C16.2958 3.37905 16.1591 3.35655 16.0566 3.42155C12.4849 5.70238 6.14493 9.75155 6.14493 9.75155Z" fill="white"/>
</svg>
